<svg width="24" height="24" viewBox="0 0 24 24" fill="none" xmlns="http://www.w3.org/2000/svg">
<path fill-rule="evenodd" clip-rule="evenodd" d="M4.42512 11.2537C4.83727 11.2124 5.20488 11.513 5.24619 11.9251L5.69723 16.4242C5.85094 17.9575 7.1413 19.1249 8.68227 19.1249H15.3176C16.8586 19.1249 18.1489 17.9575 18.3026 16.4242L18.7537 11.9251C18.795 11.513 19.1626 11.2124 19.5747 11.2537C19.9869 11.295 20.2875 11.6626 20.2462 12.0747L19.7952 16.5738C19.5646 18.8737 17.6291 20.6249 15.3176 20.6249H8.68227C6.37081 20.6249 4.43528 18.8737 4.20471 16.5738L3.75367 12.0747C3.71236 11.6626 4.01297 11.295 4.42512 11.2537Z" fill="#333333"/>
<path fill-rule="evenodd" clip-rule="evenodd" d="M14.0457 5.12717C13.0309 4.39647 11.6692 4.37195 10.6287 5.06562L2.66598 10.3741C2.32134 10.6039 1.85568 10.5107 1.62592 10.1661C1.39616 9.82143 1.48929 9.35578 1.83393 9.12601L9.79664 3.81754C11.3574 2.77704 13.3999 2.81383 14.9222 3.90986L22.1882 9.1414C22.5243 9.38343 22.6006 9.85213 22.3586 10.1883C22.1166 10.5244 21.6479 10.6007 21.3117 10.3587L14.0457 5.12717Z" fill="#333333"/>
</svg>
