<svg width="100" height="100" viewBox="0 0 100 100" fill="none" xmlns="http://www.w3.org/2000/svg">
<path d="M50 46.875H28.125C29.6875 40.625 31.25 34.375 39.0625 34.375C45.3125 34.375 50 40.625 50 46.875Z" fill="#FF9D0B"/>
<path d="M71.875 46.875H50C51.5625 39.0625 53.125 31.25 60.9375 31.25C67.1875 31.25 71.875 39.0625 71.875 46.875Z" fill="#FF9D0B"/>
<path d="M50 20.3125C40.625 21.875 39.0625 25 37.5 32.8125C45.3125 34.375 46.875 37.5 50 39.0625C51.5625 32.8125 56.25 29.6875 60.9375 29.6875C60.9375 25 57.8125 20.3125 50 20.3125Z" fill="#FF9D0B"/>
<rect x="59.375" y="46.875" width="6.25" height="6.25" fill="#FF9D0B"/>
<path fill-rule="evenodd" clip-rule="evenodd" d="M37.1873 87.5C37.1873 86.6371 37.8868 85.9375 38.7498 85.9375L61.2498 85.9375C62.1127 85.9375 62.8123 86.6371 62.8123 87.5C62.8123 88.3629 62.1127 89.0625 61.2498 89.0625L38.7498 89.0625C37.8868 89.0625 37.1873 88.3629 37.1873 87.5Z" fill="#161616"/>
<path fill-rule="evenodd" clip-rule="evenodd" d="M48.4375 87.5V71.1735H51.5625V87.5H48.4375Z" fill="#161616"/>
<path fill-rule="evenodd" clip-rule="evenodd" d="M74.7264 55.5448C74.9254 53.1487 74.9797 50.5568 74.9945 47.7678H68.75V49.2789C68.75 52.7307 65.9518 55.5289 62.5 55.5289C59.0482 55.5289 56.25 52.7307 56.25 49.2789V47.7678H25.006C25.0222 50.5534 25.0812 53.1356 25.2974 55.5215C25.5926 58.7775 26.1643 61.43 27.1727 63.5262C28.1447 65.5467 29.5447 67.103 31.6818 68.2042C33.8867 69.3403 37.0701 70.0892 41.7279 70.0892H59.9265C64.1361 70.0892 66.9703 69.3518 68.9163 68.2579C70.8052 67.1962 72.0862 65.6715 72.9908 63.62C73.9262 61.4989 74.4544 58.8181 74.7264 55.5448ZM21.8809 47.7678C21.875 46.7421 21.875 45.6995 21.875 44.6428H59.375V49.2789C59.375 51.0048 60.7741 52.4039 62.5 52.4039C64.2259 52.4039 65.625 51.0048 65.625 49.2789V44.6428H78.125C78.125 45.6995 78.125 46.7421 78.1196 47.7678C78.0443 62.1502 76.9135 73.2142 59.9265 73.2142H41.7279C23.1966 73.2142 21.963 62.1502 21.8809 47.7678Z" fill="#161616"/>
<path fill-rule="evenodd" clip-rule="evenodd" d="M32.569 37.7855C30.8713 39.2638 29.6875 41.5068 29.6875 44.6428H26.5625C26.5625 40.636 28.1131 37.5219 30.5169 35.4287C32.8896 33.3627 36.0038 32.366 39.0625 32.366C42.1212 32.366 45.2354 33.3627 47.6081 35.4287C50.0119 37.5219 51.5625 40.636 51.5625 44.6428H48.4375C48.4375 41.5068 47.2537 39.2638 45.556 37.7855C43.8271 36.2801 41.4725 35.491 39.0625 35.491C36.6525 35.491 34.2979 36.2801 32.569 37.7855Z" fill="#161616"/>
<path fill-rule="evenodd" clip-rule="evenodd" d="M74.6367 11.2134C75.3473 11.703 75.5264 12.676 75.0368 13.3866L63.7868 29.7131C63.2971 30.4237 62.3242 30.6028 61.6136 30.1132C60.903 29.6235 60.7239 28.6506 61.2135 27.94L72.4635 11.6135C72.9532 10.9029 73.9261 10.7238 74.6367 11.2134Z" fill="#161616"/>
<path fill-rule="evenodd" clip-rule="evenodd" d="M42.4981 24.9317C40.4757 26.9073 39.0625 29.8472 39.0625 33.9285H35.9375C35.9375 29.0645 37.6493 25.2997 40.3144 22.6963C42.9559 20.1159 46.4446 18.7619 49.8897 18.5182C53.3265 18.275 56.8348 19.1292 59.5226 21.1161C62.2522 23.1339 64.0625 26.2746 64.0625 30.3571H60.9375C60.9375 27.2968 59.6228 25.0762 57.6649 23.629C55.6652 22.1508 52.9235 21.4363 50.1103 21.6354C47.3054 21.8338 44.5441 22.9331 42.4981 24.9317Z" fill="#161616"/>
<path fill-rule="evenodd" clip-rule="evenodd" d="M60.9588 31.6963C56.5612 31.7561 51.5625 35.7394 51.5625 44.6428H48.4375C48.4375 34.4986 54.3763 28.6605 60.9162 28.5716C64.1276 28.5279 67.3019 29.9103 69.6468 32.6646C71.9876 35.4141 73.4375 39.4451 73.4375 44.6428H70.3125C70.3125 40.0192 69.028 36.7585 67.2673 34.6903C65.5106 32.6269 63.2162 31.6656 60.9588 31.6963Z" fill="#161616"/>
</svg>
