<svg width="24" height="24" viewBox="0 0 24 24" fill="none" xmlns="http://www.w3.org/2000/svg">
<path d="M2.97557 7.5C2.97557 7.91421 2.64526 8.25 2.23779 8.25C1.83032 8.25 1.5 7.91421 1.5 7.5C1.5 7.08579 1.83032 6.75 2.23779 6.75C2.64526 6.75 2.97557 7.08579 2.97557 7.5Z" fill="#333333"/>
<path d="M2.97557 13.125C2.97557 13.5392 2.64526 13.875 2.23779 13.875C1.83032 13.875 1.5 13.5392 1.5 13.125C1.5 12.7108 1.83032 12.375 2.23779 12.375C2.64526 12.375 2.97557 12.7108 2.97557 13.125Z" fill="#333333"/>
<path d="M2.97557 18.75C2.97557 19.1642 2.64526 19.5 2.23779 19.5C1.83032 19.5 1.5 19.1642 1.5 18.75C1.5 18.3358 1.83032 18 2.23779 18C2.64526 18 2.97557 18.3358 2.97557 18.75Z" fill="#333333"/>
<path fill-rule="evenodd" clip-rule="evenodd" d="M4.5 7.5C4.5 7.08579 4.94772 6.75 5.5 6.75H20C20.5523 6.75 21 7.08579 21 7.5C21 7.91421 20.5523 8.25 20 8.25H5.5C4.94772 8.25 4.5 7.91421 4.5 7.5Z" fill="#333333"/>
<path fill-rule="evenodd" clip-rule="evenodd" d="M4.5 13.125C4.5 12.7108 4.94772 12.375 5.5 12.375H20C20.5523 12.375 21 12.7108 21 13.125C21 13.5392 20.5523 13.875 20 13.875H5.5C4.94772 13.875 4.5 13.5392 4.5 13.125Z" fill="#333333"/>
<path fill-rule="evenodd" clip-rule="evenodd" d="M4.5 18.75C4.5 18.3358 4.94772 18 5.5 18H20C20.5523 18 21 18.3358 21 18.75C21 19.1642 20.5523 19.5 20 19.5H5.5C4.94772 19.5 4.5 19.1642 4.5 18.75Z" fill="#333333"/>
</svg>
