<svg width="150" height="44" viewBox="0 0 150 44" fill="none" xmlns="http://www.w3.org/2000/svg">
<path d="M43.0771 18.2334C42.0518 18.2334 41.2578 18.6201 40.6953 19.3936C40.1328 20.1611 39.8516 21.2334 39.8516 22.6104C39.8516 25.4756 40.9268 26.9082 43.0771 26.9082C43.9795 26.9082 45.0723 26.6826 46.3555 26.2314V28.5166C45.3008 28.9561 44.123 29.1758 42.8223 29.1758C40.9531 29.1758 39.5234 28.6104 38.5332 27.4795C37.543 26.3428 37.0479 24.7139 37.0479 22.5928C37.0479 21.2568 37.291 20.0879 37.7773 19.0859C38.2637 18.0781 38.9609 17.3076 39.8691 16.7744C40.7832 16.2354 41.8525 15.9658 43.0771 15.9658C44.3252 15.9658 45.5791 16.2676 46.8389 16.8711L45.96 19.0859C45.4795 18.8574 44.9961 18.6582 44.5098 18.4883C44.0234 18.3184 43.5459 18.2334 43.0771 18.2334ZM56.9639 29L56.0322 25.9414H51.3477L50.416 29H47.4805L52.0156 16.0977H55.3467L59.8994 29H56.9639ZM55.3818 23.6562C54.5205 20.8848 54.0342 19.3174 53.9229 18.9541C53.8174 18.5908 53.7412 18.3037 53.6943 18.0928C53.501 18.8428 52.9473 20.6973 52.0332 23.6562H55.3818ZM64.2061 29H61.5254V16.1504H68.8906V18.3828H64.2061V21.6963H68.5654V23.9199H64.2061V29ZM78.8047 29H71.4043V16.1504H78.8047V18.3828H74.1289V21.2041H78.4795V23.4365H74.1289V26.75H78.8047V29ZM86.4512 29H83.7266V18.418H80.2373V16.1504H89.9404V18.418H86.4512V29ZM99.7842 29L98.8525 25.9414H94.168L93.2363 29H90.3008L94.8359 16.0977H98.167L102.72 29H99.7842ZM98.2021 23.6562C97.3408 20.8848 96.8545 19.3174 96.7432 18.9541C96.6377 18.5908 96.5615 18.3037 96.5146 18.0928C96.3213 18.8428 95.7676 20.6973 94.8535 23.6562H98.2021ZM107.07 21.8545H107.949C108.811 21.8545 109.446 21.7109 109.856 21.4238C110.267 21.1367 110.472 20.6855 110.472 20.0703C110.472 19.4609 110.261 19.0273 109.839 18.7695C109.423 18.5117 108.775 18.3828 107.896 18.3828H107.07V21.8545ZM107.07 24.0693V29H104.346V16.1504H108.09C109.836 16.1504 111.128 16.4697 111.966 17.1084C112.804 17.7412 113.223 18.7051 113.223 20C113.223 20.7559 113.015 21.4297 112.599 22.0215C112.183 22.6074 111.594 23.0674 110.832 23.4014C112.766 26.29 114.025 28.1562 114.611 29H111.588L108.521 24.0693H107.07ZM116.229 29V16.1504H118.953V29H116.229ZM130.054 29L129.122 25.9414H124.438L123.506 29H120.57L125.105 16.0977H128.437L132.989 29H130.054ZM128.472 23.6562C127.61 20.8848 127.124 19.3174 127.013 18.9541C126.907 18.5908 126.831 18.3037 126.784 18.0928C126.591 18.8428 126.037 20.6973 125.123 23.6562H128.472Z" fill="#333333"/>
<path d="M3 19.8777H29C29 31.7913 3 32.2877 3 19.8777Z" fill="#FF9839"/>
<path fill-rule="evenodd" clip-rule="evenodd" d="M16.1295 3.0685C16.4447 2.90858 16.828 3.03822 16.9856 3.35805C18.3765 6.18026 17.6717 8.5038 17.0384 10.5916L17.0248 10.6364C16.3851 12.7456 15.8338 14.6176 16.9856 16.9549C17.1433 17.2747 17.0155 17.6636 16.7002 17.8236C16.385 17.9835 16.0017 17.8538 15.8441 17.534C14.4532 14.7118 15.158 12.3882 15.7913 10.3004L15.8049 10.2556C16.4446 8.14646 16.9959 6.2745 15.8441 3.93717C15.6864 3.61733 15.8142 3.22841 16.1295 3.0685ZM11.9814 8.24824C12.2966 8.08833 12.68 8.21796 12.8376 8.5378C13.535 9.95299 13.1171 11.2483 12.7578 12.362C12.716 12.4916 12.675 12.6188 12.6366 12.7434C12.2585 13.9711 11.9881 15.231 12.8376 16.9549C12.9952 17.2747 12.8674 17.6636 12.5522 17.8236C12.237 17.9835 11.8536 17.8538 11.696 17.534C10.6311 15.3731 10.9988 13.7194 11.4184 12.3572C11.4582 12.2279 11.4973 12.1033 11.5351 11.983C11.9048 10.8061 12.1476 10.0332 11.696 9.11691C11.5384 8.79708 11.6662 8.40816 11.9814 8.24824ZM20.0685 9.49974C20.4074 9.4015 20.7606 9.60059 20.8574 9.94442C21.0527 10.6379 21.0214 11.3105 20.918 11.9343C20.8476 12.3594 20.7343 12.8041 20.6286 13.2191C20.585 13.3902 20.5427 13.5563 20.5052 13.7139C20.2367 14.8424 20.1282 15.8351 20.785 16.9013C20.9718 17.2045 20.8809 17.604 20.582 17.7935C20.2832 17.983 19.8895 17.8908 19.7027 17.5876C18.764 16.0639 18.9746 14.6286 19.2645 13.41C19.313 13.2062 19.3618 13.0148 19.4088 12.8308C19.5078 12.4428 19.5983 12.0878 19.6594 11.7196C19.7454 11.2002 19.754 10.7397 19.6302 10.3002C19.5334 9.95634 19.7296 9.59798 20.0685 9.49974Z" fill="#FF9839"/>
</svg>
