<svg width="81" height="80" viewBox="0 0 81 80" fill="none" xmlns="http://www.w3.org/2000/svg">
<path d="M0.161194 51.9314H80.1612C80.1612 88.5887 0.161194 90.1161 0.161194 51.9314Z" fill="#FF9839"/>
<path fill-rule="evenodd" clip-rule="evenodd" d="M40.5596 0.210759C41.5295 -0.281295 42.709 0.117595 43.194 1.1017C47.4734 9.78541 45.3048 16.9348 43.3562 23.3588L43.3144 23.4967C41.3463 29.9864 39.6498 35.7463 43.194 42.9381C43.6789 43.9222 43.2858 45.1189 42.3158 45.6109C41.3459 46.103 40.1664 45.7041 39.6814 44.72C35.402 36.0363 37.5705 28.8869 39.5191 22.4628L39.5609 22.325C41.5291 15.8352 43.2256 10.0754 39.6814 2.88359C39.1964 1.89948 39.5896 0.702812 40.5596 0.210759ZM27.7963 16.1484C28.7663 15.6564 29.9458 16.0553 30.4307 17.0394C32.5767 21.3938 31.2909 25.3793 30.1854 28.8061C30.0567 29.205 29.9304 29.5963 29.8123 29.9797C28.6488 33.7572 27.8168 37.6339 30.4307 42.9381C30.9157 43.9222 30.5226 45.1189 29.5526 45.6109C28.5826 46.103 27.4032 45.7041 26.9182 44.72C23.6414 38.0709 24.773 32.9826 26.0639 28.7913C26.1865 28.3934 26.3068 28.0102 26.4231 27.6401C27.5607 24.0186 28.3076 21.6406 26.9182 18.8213C26.4332 17.8371 26.8264 16.6405 27.7963 16.1484ZM52.6797 19.9992C53.7224 19.6969 54.8092 20.3095 55.1072 21.3674C55.7081 23.5013 55.6117 25.5708 55.2936 27.4902C55.0768 28.7983 54.7283 30.1664 54.403 31.4435C54.2689 31.9699 54.1388 32.4809 54.0234 32.9658C53.1973 36.438 52.8634 39.4926 54.8842 42.7732C55.459 43.7062 55.1794 44.9353 54.2598 45.5184C53.3402 46.1015 52.1288 45.8179 51.554 44.8849C48.666 40.1966 49.3138 35.7804 50.2059 32.0309C50.3551 31.4038 50.5053 30.8148 50.6498 30.2487C50.9544 29.0547 51.2331 27.9625 51.4208 26.8295C51.6857 25.2314 51.712 23.8145 51.3311 22.462C51.0332 21.4041 51.637 20.3014 52.6797 19.9992Z" fill="#FF9839"/>
</svg>
