<svg width="100" height="100" viewBox="0 0 100 100" fill="none" xmlns="http://www.w3.org/2000/svg">
<path d="M82.1426 70.8334C64.2855 62.5 46.4284 84.1667 17.8569 70.8334C24.9998 82.5 39.2855 85.8334 53.5712 85.8334C67.8569 84.1667 76.7855 79.1667 82.1426 70.8334Z" fill="#FFA621"/>
<path fill-rule="evenodd" clip-rule="evenodd" d="M14.2857 56.2597C15.2719 56.2597 16.0714 57.0059 16.0714 57.9264C16.0714 66.6627 20.2341 73.1588 26.5125 77.5196C32.8422 81.916 41.3753 84.1668 50 84.1668C58.6247 84.1668 67.1578 81.916 73.4875 77.5196C79.7659 73.1588 83.9286 66.6627 83.9286 57.9264C83.9286 57.0059 84.7281 56.2597 85.7143 56.2597C86.7005 56.2597 87.5 57.0059 87.5 57.9264C87.5 67.7947 82.7341 75.2522 75.6197 80.1937C68.5565 85.0997 59.2325 87.5001 50 87.5001C40.7675 87.5001 31.4436 85.0997 24.3803 80.1937C17.2659 75.2522 12.5 67.7947 12.5 57.9264C12.5 57.0059 13.2995 56.2597 14.2857 56.2597Z" fill="#161616"/>
<path fill-rule="evenodd" clip-rule="evenodd" d="M38.6689 68.1872C31.8751 67.8781 23.7663 65.4121 13.3406 59.3401L15.2313 56.5122C25.3413 62.4003 32.8575 64.5855 38.8427 64.8578C44.7957 65.1286 49.4399 63.5184 53.8819 61.4221C55.0798 60.8568 56.2923 60.238 57.5261 59.6084C60.7523 57.962 64.1235 56.2416 67.7562 55.2102C72.9774 53.7279 78.8625 53.5822 86.3758 56.3779L85.0532 59.4743C78.2808 56.9543 73.2284 57.1408 68.7956 58.3993C65.5361 59.3247 62.6648 60.7907 59.5694 62.371C58.2657 63.0366 56.9223 63.7225 55.4935 64.3968C50.7838 66.6195 45.4949 68.4977 38.6689 68.1872Z" fill="#161616"/>
<path fill-rule="evenodd" clip-rule="evenodd" d="M50.3697 12.684C51.2704 12.2544 52.3656 12.6027 52.8159 13.4617C56.7897 21.0422 54.776 27.2832 52.9666 32.8911L52.9278 33.0115C51.1002 38.6767 49.5249 43.7047 52.8159 49.9828C53.2663 50.8419 52.9012 51.8865 52.0005 52.3161C51.0998 52.7456 50.0046 52.3974 49.5543 51.5383C45.5805 43.9579 47.5942 37.7168 49.4036 32.1089L49.4424 31.9886C51.27 26.3234 52.8453 21.2953 49.5543 15.0172C49.1039 14.1581 49.469 13.1135 50.3697 12.684ZM38.5181 26.5968C39.4188 26.1672 40.514 26.5154 40.9644 27.3745C42.957 31.1757 41.7631 34.6548 40.7365 37.6463C40.617 37.9945 40.4998 38.3361 40.3901 38.6708C39.3097 41.9684 38.5371 45.3525 40.9644 49.9828C41.4147 50.8419 41.0496 51.8865 40.149 52.3161C39.2483 52.7456 38.1531 52.3974 37.7027 51.5383C34.66 45.734 35.7107 41.2922 36.9095 37.6334C37.0233 37.286 37.135 36.9515 37.243 36.6284C38.2993 33.467 38.9929 31.3912 37.7027 28.93C37.2524 28.0709 37.6175 27.0263 38.5181 26.5968ZM61.6241 29.9583C62.5924 29.6944 63.6015 30.2292 63.8782 31.1527C64.4362 33.0155 64.3467 34.8221 64.0513 36.4976C63.85 37.6395 63.5264 38.8338 63.2243 39.9486C63.0998 40.4081 62.979 40.8542 62.8718 41.2775C62.1048 44.3086 61.7947 46.9751 63.6712 49.8388C64.2049 50.6533 63.9453 51.7263 63.0914 52.2353C62.2375 52.7444 61.1126 52.4968 60.5789 51.6823C57.8971 47.5896 58.4987 43.7345 59.327 40.4614C59.4655 39.914 59.6051 39.3998 59.7392 38.9056C60.0221 37.8633 60.2808 36.9098 60.4552 35.9208C60.7011 34.5257 60.7255 33.2889 60.3719 32.1082C60.0952 31.1847 60.6559 30.2222 61.6241 29.9583Z" fill="#161616"/>
</svg>
