<svg width="24" height="24" viewBox="0 0 24 24" fill="none" xmlns="http://www.w3.org/2000/svg">
<path fill-rule="evenodd" clip-rule="evenodd" d="M12.3045 2.31458C12.683 2.48281 12.8535 2.92603 12.6853 3.30455C12.0432 4.74914 12.2654 5.93965 12.5897 7.32952C12.6065 7.40139 12.6236 7.47392 12.6408 7.54711C12.9536 8.87398 13.3177 10.4183 12.7114 12.2371C12.5804 12.6301 12.1557 12.8424 11.7627 12.7115C11.3698 12.5805 11.1574 12.1557 11.2884 11.7628C11.7574 10.3559 11.4843 9.1889 11.1627 7.81466C11.1515 7.76682 11.1402 7.71873 11.1289 7.67037C10.797 6.24773 10.4566 4.62575 11.3146 2.69534C11.4828 2.31683 11.926 2.14636 12.3045 2.31458Z" fill="#333333"/>
<path fill-rule="evenodd" clip-rule="evenodd" d="M15.1659 5.39949C15.4976 5.64761 15.5653 6.11763 15.3172 6.44931C15.2767 6.50343 15.2177 6.6434 15.2536 7.0256C15.2831 7.33976 15.3613 7.69314 15.4578 8.12939C15.4783 8.222 15.4996 8.31835 15.5214 8.41885C15.7531 9.48467 16.0307 10.9358 15.3982 12.3131C15.2253 12.6895 14.78 12.8545 14.4036 12.6816C14.0272 12.5087 13.8622 12.0634 14.0351 11.687C14.4359 10.8143 14.2927 9.82792 14.0557 8.73749C14.0377 8.6548 14.0189 8.57036 13.9999 8.48477C13.9029 8.04845 13.7993 7.58227 13.7602 7.1659C13.7135 6.66919 13.7358 6.05916 14.1161 5.55078C14.3642 5.21911 14.8342 5.15137 15.1659 5.39949Z" fill="#333333"/>
<path fill-rule="evenodd" clip-rule="evenodd" d="M8.75149 6.79231C9.14231 6.65509 9.57038 6.86067 9.70761 7.25149C9.74643 7.36206 9.7855 7.47171 9.82426 7.58053C10.0946 8.33939 10.3504 9.05735 10.4077 9.75925C10.4795 10.6394 10.2492 11.459 9.62788 12.4101C9.40136 12.7569 8.9366 12.8544 8.58981 12.6279C8.24303 12.4014 8.14553 11.9366 8.37204 11.5898C8.85301 10.8535 8.9518 10.3605 8.91267 9.8813C8.87251 9.38932 8.69132 8.87714 8.4091 8.0794C8.37189 7.97424 8.33294 7.86412 8.29231 7.74843C8.15509 7.35761 8.36067 6.92954 8.75149 6.79231Z" fill="#333333"/>
<path fill-rule="evenodd" clip-rule="evenodd" d="M4.5 14.25C4.91421 14.25 5.25 14.5858 5.25 15C5.25 16.2342 5.9758 17.2167 7.26522 17.9296C8.56615 18.6488 10.3541 19.0312 12.1875 19.0312C14.0209 19.0312 15.8088 18.6488 17.1098 17.9296C18.3992 17.2167 19.125 16.2342 19.125 15C19.125 14.5858 19.4608 14.25 19.875 14.25C20.2892 14.25 20.625 14.5858 20.625 15C20.625 16.9533 19.4289 18.3614 17.8355 19.2423C16.2537 20.1168 14.1979 20.5312 12.1875 20.5312C10.1771 20.5312 8.12135 20.1168 6.53947 19.2423C4.94607 18.3614 3.75 16.9533 3.75 15C3.75 14.5858 4.08579 14.25 4.5 14.25Z" fill="#333333"/>
<path fill-rule="evenodd" clip-rule="evenodd" d="M19.875 15.75H4.5V14.25H19.875V15.75Z" fill="#333333"/>
</svg>
