<svg width="100" height="100" viewBox="0 0 100 100" fill="none" xmlns="http://www.w3.org/2000/svg">
<path d="M66.6666 60.2274C53.3333 56.8182 48.3333 70.4547 33.3333 60.2274L36.6666 85.7956H63.3333L66.6666 60.2274Z" fill="#FF9D0B"/>
<path fill-rule="evenodd" clip-rule="evenodd" d="M61.3867 13.3351C61.8973 14.1968 61.6903 15.3609 60.9244 15.9353L51.6666 22.8787V35.0002C51.6666 36.0357 50.9204 36.8752 49.9999 36.8752C49.0794 36.8752 48.3333 36.0357 48.3333 35.0002V21.8752C48.3333 21.2483 48.6118 20.6629 49.0754 20.3151L59.0754 12.8151C59.8413 12.2407 60.8761 12.4735 61.3867 13.3351Z" fill="#161616"/>
<path fill-rule="evenodd" clip-rule="evenodd" d="M28.3333 34.9999L34.2423 87.4999H65.7575L71.6666 34.9999H28.3333ZM31.8297 38.1249L37.0353 84.3749H62.9645L68.1701 38.1249H31.8297Z" fill="#161616"/>
<path d="M25 36.8749C25 35.8393 25.8395 34.9999 26.875 34.9999H73.125C74.1605 34.9999 75 35.8393 75 36.8749C75 37.9104 74.1605 38.7499 73.125 38.7499H26.875C25.8395 38.7499 25 37.9104 25 36.8749Z" fill="#161616"/>
</svg>
