<svg width="24" height="24" viewBox="0 0 24 24" fill="none" xmlns="http://www.w3.org/2000/svg">
<path fill-rule="evenodd" clip-rule="evenodd" d="M4.30769 8.73333C3.88286 8.73333 3.53846 9.12135 3.53846 9.6V17.4C3.53846 17.8786 3.88286 18.2667 4.30769 18.2667H19.6923C20.1171 18.2667 20.4615 17.8786 20.4615 17.4V9.6C20.4615 9.12135 20.1171 8.73333 19.6923 8.73333H4.30769ZM2 9.6C2 8.16406 3.03319 7 4.30769 7H19.6923C20.9668 7 22 8.16406 22 9.6V17.4C22 18.8359 20.9668 20 19.6923 20H4.30769C3.03319 20 2 18.8359 2 17.4V9.6Z" fill="#333333"/>
<path fill-rule="evenodd" clip-rule="evenodd" d="M6.75 6C7.16421 6 7.5 6.33579 7.5 6.75V9C7.5 9.41421 7.16421 9.75 6.75 9.75C6.33579 9.75 6 9.41421 6 9V6.75C6 6.33579 6.33579 6 6.75 6Z" fill="#333333"/>
<path fill-rule="evenodd" clip-rule="evenodd" d="M17.25 6C17.6642 6 18 6.33579 18 6.75V9C18 9.41421 17.6642 9.75 17.25 9.75C16.8358 9.75 16.5 9.41421 16.5 9V6.75C16.5 6.33579 16.8358 6 17.25 6Z" fill="#333333"/>
<path d="M5.25 13.5H6.75V15H5.25V13.5Z" fill="#333333"/>
<path d="M5.25 15.75H6.75V17.25H5.25V15.75Z" fill="#333333"/>
<path d="M8.25 13.5H9.75V15H8.25V13.5Z" fill="#333333"/>
<path d="M8.25 15.75H9.75V17.25H8.25V15.75Z" fill="#333333"/>
<path d="M11.25 11.25H12.75V12.75H11.25V11.25Z" fill="#333333"/>
<path d="M11.25 13.5H12.75V15H11.25V13.5Z" fill="#333333"/>
<path d="M11.25 15.75H12.75V17.25H11.25V15.75Z" fill="#333333"/>
<path d="M14.25 11.25H15.75V12.75H14.25V11.25Z" fill="#333333"/>
<path d="M14.25 13.5H15.75V15H14.25V13.5Z" fill="#333333"/>
<path d="M17.25 11.25H18.75V12.75H17.25V11.25Z" fill="#333333"/>
<path d="M17.25 13.5H18.75V15H17.25V13.5Z" fill="#333333"/>
</svg>
